<?xml version="1.0" encoding="utf-8"?>
<!-- Generator: Adobe Illustrator 27.2.0, SVG Export Plug-In . SVG Version: 6.00 Build 0)  -->
<svg version="1.1" id="圖層_1" xmlns="http://www.w3.org/2000/svg" xmlns:xlink="http://www.w3.org/1999/xlink" x="0px" y="0px"
	 viewBox="0 0 100 100" style="enable-background:new 0 0 100 100;" xml:space="preserve">
<style type="text/css">
	.st0{fill:#D5E9C4;}
</style>
<path class="st0" d="M84.28,56.47l6.75-29.7c0.49-2.14-1.14-4.18-3.34-4.18H31.61l-1.31-6.4c-0.31-1.6-1.73-2.74-3.36-2.74H12.3
	c-1.9,0-3.43,1.53-3.43,3.43v2.28c0,1.9,1.53,3.43,3.43,3.43h9.98l10.02,49.04c-2.4,1.39-4.01,3.97-4.01,6.94c0,4.41,3.58,8,8,8
	s8-3.58,8-8c0-2.24-0.91-4.26-2.4-5.71h29.93c-1.49,1.46-2.4,3.47-2.4,5.71c0,4.41,3.58,8,8,8c4.41,0,8-3.58,8-8
	c0-3.17-1.84-5.9-4.51-7.2l0.79-3.47c0.49-2.14-1.14-4.18-3.34-4.18H40.02l-0.93-4.57h41.85C82.54,59.14,83.93,58.03,84.28,56.47
	L84.28,56.47z"/>
</svg>
